# xmcd
#
# Track frame offsets:
#      150
#      18026
#      36877
#      56306
#      73532
#      89372
#      108353
#      129233
#      148846
#      163228
#      179870
#
# Disc length: 2625
# Revision: 2
# Processed by: cddbd v1.4b41PL1 Copyright (c) Steve Scherf et al.
# Submitted via: PowerPlay 1.50
#
DISCID=950a3f0b
DTITLE=Teddy Morgan And The Pistolas - Lost Love And Highways
DYEAR=1900
DGENRE=
TTITLE0=Bullet From A Gun
TTITLE1=Lost Love And Highways
TTITLE2=I Ain't Waitin' No More
TTITLE3=Nothing To Go Back To
TTITLE4=Run Down Shacks
TTITLE5=One More Night
TTITLE6='59 Cadillac
TTITLE7=A Word About A Woman
TTITLE8=Wish You Were Mine
TTITLE9=Should Be Gone
TTITLE10=Walk Away Cryin'
EXTD=
EXTT0=
EXTT1=
EXTT2=
EXTT3=
EXTT4=
EXTT5=
EXTT6=
EXTT7=
EXTT8=
EXTT9=
EXTT10=
PLAYORDER=
